<?xml version="1.0" encoding="utf-8"?>
<!-- Generator: Adobe Illustrator 23.0.0, SVG Export Plug-In . SVG Version: 6.00 Build 0)  -->
<svg version="1.1" id="Fond" xmlns="http://www.w3.org/2000/svg" xmlns:xlink="http://www.w3.org/1999/xlink" x="0px" y="0px"
	 viewBox="0 0 46.4 36.9" style="enable-background:new 0 0 46.4 36.9;" xml:space="preserve">
<style type="text/css">
	.st0{fill:#FFFFFF;}
</style>
<path class="st0" d="M23.2,32.9c0,0.8-0.5,1.6-1.2,1.9L21.1,35c-0.5,0-0.9-0.2-1.3-0.5L8.2,25H2.1C0.9,25,0,24.1,0,22.9c0,0,0,0,0,0
	v-8.4c0-1.2,0.9-2.1,2.1-2.1c0,0,0,0,0,0h6.1l11.6-9.6c0.6-0.5,1.5-0.6,2.2-0.3c0.7,0.4,1.2,1.1,1.2,1.9V32.9z M31.3,29.6h-0.1
	c-0.6,0-1.1-0.2-1.5-0.6l-0.3-0.3c-0.7-0.7-0.8-1.9-0.2-2.7c3.3-4.5,3.2-10.7-0.3-15.1c-0.7-0.8-0.7-2,0.1-2.8l0.3-0.3
	c0.4-0.4,1-0.6,1.6-0.6C31.5,7.3,32,7.5,32.4,8c2.5,3,3.8,6.8,3.8,10.7c0,3.6-1.1,7.2-3.3,10.1C32.5,29.3,31.9,29.6,31.3,29.6z
	 M40,36.1c-0.4,0.5-0.9,0.8-1.5,0.8h-0.1c-0.5,0-1.1-0.3-1.5-0.6L36.7,36c-0.8-0.8-0.9-2-0.2-2.9c3.4-4,5.3-9.1,5.3-14.4
	c0-5.5-2-10.8-5.6-14.9c-0.8-0.8-0.8-2.1,0-2.9l0.3-0.3c0.4-0.4,1-0.6,1.6-0.6c0.6,0,1.1,0.3,1.5,0.7C48.5,10.8,48.7,25.8,40,36.1z"
	/>
</svg>
