<?xml version="1.0" encoding="utf-8"?>
<!-- Generator: Adobe Illustrator 23.0.0, SVG Export Plug-In . SVG Version: 6.00 Build 0)  -->
<svg version="1.1" id="Fond" xmlns="http://www.w3.org/2000/svg" xmlns:xlink="http://www.w3.org/1999/xlink" x="0px" y="0px"
	 viewBox="0 0 51.3 32.7" style="enable-background:new 0 0 51.3 32.7;" xml:space="preserve">
<path class="st0" d="M23.2,30.6c0,0.8-0.4,1.6-1.2,1.9l-0.9,0.2c-0.5,0-0.9-0.2-1.3-0.5L8.3,22.7H2.1c-1.2,0-2.1-0.9-2.1-2.1
	c0,0,0,0,0,0v-8.4C-0.1,11,0.8,10.1,2,10c0,0,0.1,0,0.1,0h6.2l11.5-9.5C20.4,0,21.3-0.1,22,0.2c0.8,0.3,1.2,1.1,1.2,1.9V30.6z"/>
<path class="st0" d="M50.8,6.6L50.8,6.6c-0.8-0.8-2.1-0.8-2.9,0l-6.6,6.7l-6.7-6.7c-0.7-0.8-1.9-0.8-2.7-0.1c0,0-0.1,0.1-0.1,0.1
	l0,0C31,7.3,31,8.5,31.7,9.3c0,0,0.1,0.1,0.1,0.1l6.7,6.7l-6.7,6.7c-0.8,0.7-0.8,1.9-0.1,2.7c0,0,0.1,0.1,0.1,0.1l0,0
	c0.7,0.8,1.9,0.8,2.7,0.1c0,0,0.1-0.1,0.1-0.1l6.7-6.7l6.6,6.7c0.8,0.8,2.1,0.8,2.9,0l0,0c0.7-0.8,0.7-2,0-2.8l-6.7-6.7l6.7-6.7
	C51.5,8.6,51.5,7.4,50.8,6.6z"/>
</svg>
