<?xml version="1.0" encoding="utf-8"?>
<!-- Generator: Adobe Illustrator 23.0.0, SVG Export Plug-In . SVG Version: 6.00 Build 0)  -->
<svg version="1.1" id="Fond" xmlns="http://www.w3.org/2000/svg" xmlns:xlink="http://www.w3.org/1999/xlink" x="0px" y="0px"
	 viewBox="0 0 38.6 38.6" style="enable-background:new 0 0 38.6 38.6;" xml:space="preserve">
<path class="st0" d="M19.3,0C8.6-0.2-0.2,8.3-0.4,18.9s8.3,19.5,18.9,19.6c5.2,0.2,10.3-1.7,14.1-5.4c3.8-3.6,5.9-8.7,5.9-13.9
	C38.6,8.6,30,0,19.3,0z M4.1,10.3c0,0,3.8-6.3,8.8-7.3c-1.5,1.8-3,3-4.3,6.9v0.3L3.7,11L4.1,10.3z M1.6,18.1
	c0.2-1.8,0.6-3.5,1.2-5.2v-0.2L8,11.9l-0.2,0.5c-0.4,1.9-0.7,3.8-0.7,5.8v0.3H1.6V18.1z M2.8,25.7c-0.6-1.7-1.1-3.4-1.2-5.2v-0.4H7
	v0.4c0,1.9,0.3,3.8,0.7,5.7l0.2,0.6l-5.1-0.9L2.8,25.7z M3.7,27.7l4.8,0.8v0.2c1,2.7,2.5,5.1,4.4,7.3C6.9,34,3.7,27.7,3.7,27.7z
	 M18.5,37h-0.4c-3.1-0.6-5.8-3.3-7.6-7.5l-0.2-0.6l1.3,0.2c2.2,0.4,4.4,0.6,6.6,0.7h0.3V37z M18.5,28.1h-0.4
	C16,28,14,27.8,11.9,27.5l-2.2-0.4v-0.2c-0.5-2.1-0.9-4.2-1-6.4v-0.4h9.9L18.5,28.1z M18.5,18.5H8.6v-0.4c0.1-2.1,0.5-4.2,1-6.3
	v-0.2l2.2-0.4c2-0.4,4.1-0.6,6.2-0.6h0.4L18.5,18.5z M18.5,9h-0.3c-2.2,0.1-4.4,0.3-6.6,0.6l-1.3,0.3l0.2-0.7
	C12.3,5,15,2.3,18.1,1.7h0.4V9z M35.9,12.9c0.6,1.7,1,3.4,1.1,5.2v0.4h-5.4v-0.3c-0.1-2-0.3-3.9-0.8-5.8v-0.5l5.1,0.8V12.9z M35,11
	l-4.8-0.8V9.9c-1.1-2.5-2.5-4.8-4.3-6.9C30.8,4.1,35,11,35,11z M20.1,1.6h0.5c3,0.6,5.8,3.3,7.5,7.5l0.3,0.7l-1.3-0.3
	C24.9,9.2,22.7,9,20.5,9h-0.4V1.6z M20.1,10.6h0.4c2.1,0,4.2,0.2,6.3,0.6l2.1,0.4v0.2c0.6,2.1,0.9,4.2,1,6.3v0.4h-9.8V10.6z
	 M20.1,20.1H30v0.4c-0.1,2.2-0.4,4.3-1,6.4v0.2l-2.1,0.4c-2.1,0.3-4.2,0.5-6.3,0.6h-0.4L20.1,20.1z M20.6,36.9h-0.5v-7.2h0.4
	c2.2-0.1,4.4-0.3,6.6-0.7l1.3-0.2l-0.3,0.6C26.4,33.6,23.6,36.3,20.6,36.9z M24.9,36c2-1,4.5-5.1,5.2-7.3v-0.2l4.8-0.8
	C34.9,27.7,30.9,35,24.9,36z M37,20.5c-0.1,1.8-0.5,3.5-1.1,5.2v0.2l-5.1,0.9v-0.6c0.5-1.9,0.7-3.8,0.8-5.7v-0.4H37V20.5z"/>
</svg>
