<?xml version="1.0" encoding="utf-8"?>
<!-- Generator: Adobe Illustrator 23.0.0, SVG Export Plug-In . SVG Version: 6.00 Build 0)  -->
<svg version="1.1" id="Fond" xmlns="http://www.w3.org/2000/svg" xmlns:xlink="http://www.w3.org/1999/xlink" x="0px" y="0px"
	 viewBox="0 0 39.7 28.8" style="enable-background:new 0 0 39.7 28.8;" xml:space="preserve">
<path d="M38.9,0H0.8C0.4,0,0,0.4,0,0.8V28c0,0.4,0.4,0.8,0.8,0.8h38.1c0.4,0,0.8-0.4,0.8-0.8V0.8C39.7,0.4,39.3,0,38.9,0z M36.5,1.6
	L19.9,14.3L3.2,1.6H36.5z M38.1,27.2H1.6V2.4l17.8,13.5c0.2,0.2,0.6,0.3,0.8,0.1c0,0,0,0,0.1-0.1L38.1,2.4V27.2z"/>
</svg>
