<?xml version="1.0" encoding="utf-8"?>
<!-- Generator: Adobe Illustrator 23.0.0, SVG Export Plug-In . SVG Version: 6.00 Build 0)  -->
<svg version="1.1" id="Fond" xmlns="http://www.w3.org/2000/svg" xmlns:xlink="http://www.w3.org/1999/xlink" x="0px" y="0px"
	 viewBox="0 0 38.9 38.5" style="enable-background:new 0 0 38.9 38.5;" xml:space="preserve">
<path d="M19.7,0C9-0.2,0.2,8.3,0,18.9s8.3,19.5,18.9,19.6c5.2,0.2,10.3-1.7,14.1-5.4c3.8-3.6,5.9-8.7,5.9-13.9C39,8.6,30.4,0,19.7,0
	z M4.5,10.3c0,0,3.8-6.3,8.8-7.3c-1.5,1.8-3,3-4.3,6.9v0.3L4.1,11L4.5,10.3z M2,18.1c0.2-1.8,0.6-3.5,1.2-5.2v-0.2l5.2-0.8l-0.2,0.5
	c-0.4,1.9-0.7,3.8-0.7,5.8v0.3H2V18.1z M3.2,25.7C2.6,24,2.1,22.3,2,20.5v-0.4h5.4v0.4c0,1.9,0.3,3.8,0.7,5.7l0.2,0.6l-5.1-0.9
	L3.2,25.7z M4.1,27.7l4.8,0.8v0.2c1,2.7,2.5,5.1,4.4,7.3C7.3,34,4.1,27.7,4.1,27.7z M18.9,37h-0.4c-3.1-0.6-5.8-3.3-7.6-7.5
	l-0.2-0.6l1.3,0.2c2.2,0.4,4.4,0.6,6.6,0.7h0.3V37z M18.9,28.1h-0.4c-2.1-0.1-4.1-0.3-6.2-0.6l-2.2-0.4v-0.2c-0.5-2.1-0.9-4.2-1-6.4
	v-0.4H19L18.9,28.1z M18.9,18.5H9v-0.4c0.1-2.1,0.5-4.2,1-6.3v-0.2l2.2-0.4c2-0.4,4.1-0.6,6.2-0.6h0.4L18.9,18.5z M18.9,9h-0.3
	c-2.2,0.1-4.4,0.3-6.6,0.6l-1.3,0.3l0.2-0.7c1.8-4.2,4.5-6.9,7.6-7.5h0.4V9z M36.3,12.9c0.6,1.7,1,3.4,1.1,5.2v0.4H32v-0.3
	c-0.1-2-0.3-3.9-0.8-5.8v-0.5l5.1,0.8V12.9z M35.4,11l-4.8-0.8V9.9c-1.1-2.5-2.5-4.8-4.3-6.9C31.2,4.1,35.4,11,35.4,11z M20.5,1.6
	H21c3,0.6,5.8,3.3,7.5,7.5l0.3,0.7l-1.3-0.3C25.3,9.2,23.1,9,20.9,9h-0.4V1.6z M20.5,10.6h0.4c2.1,0,4.2,0.2,6.3,0.6l2.1,0.4v0.2
	c0.6,2.1,0.9,4.2,1,6.3v0.4h-9.8C20.5,18.5,20.5,10.6,20.5,10.6z M20.5,20.1h9.9v0.4c-0.1,2.2-0.4,4.3-1,6.4v0.2l-2.1,0.4
	c-2.1,0.3-4.2,0.5-6.3,0.6h-0.4L20.5,20.1z M21,36.9h-0.5v-7.2h0.4c2.2-0.1,4.4-0.3,6.6-0.7l1.3-0.2l-0.3,0.6
	C26.8,33.6,24,36.3,21,36.9z M25.3,36c2-1,4.5-5.1,5.2-7.3v-0.2l4.8-0.8C35.3,27.7,31.3,35,25.3,36z M37.4,20.5
	c-0.1,1.8-0.5,3.5-1.1,5.2v0.2l-5.1,0.9v-0.6c0.5-1.9,0.7-3.8,0.8-5.7v-0.4h5.4V20.5z"/>
</svg>
